<svg width="82" height="81" viewBox="0 0 82 81" fill="none" xmlns="http://www.w3.org/2000/svg">
<rect width="81" height="80" rx="20" fill="#333333"/>
<path d="M64.4375 47.9062H73.7812C73.5938 50.9688 72.75 53.6875 71.25 56.0625C69.7708 58.4375 67.6979 60.2917 65.0312 61.625C62.3854 62.9583 59.1979 63.625 55.4688 63.625C52.5521 63.625 49.9375 63.125 47.625 62.125C45.3125 61.1042 43.3333 59.6458 41.6875 57.75C40.0625 55.8542 38.8229 53.5625 37.9688 50.875C37.1146 48.1875 36.6875 45.1771 36.6875 41.8438V38.6875C36.6875 35.3542 37.125 32.3438 38 29.6562C38.8958 26.9479 40.1667 24.6458 41.8125 22.75C43.4792 20.8542 45.4688 19.3958 47.7812 18.375C50.0938 17.3542 52.6771 16.8438 55.5312 16.8438C59.3229 16.8438 62.5208 17.5312 65.125 18.9062C67.75 20.2812 69.7812 22.1771 71.2188 24.5938C72.6771 27.0104 73.5521 29.7604 73.8438 32.8438H64.4688C64.3646 31.0104 64 29.4583 63.375 28.1875C62.75 26.8958 61.8021 25.9271 60.5312 25.2812C59.2812 24.6146 57.6146 24.2812 55.5312 24.2812C53.9688 24.2812 52.6042 24.5729 51.4375 25.1562C50.2708 25.7396 49.2917 26.625 48.5 27.8125C47.7083 29 47.1146 30.5 46.7188 32.3125C46.3438 34.1042 46.1562 36.2083 46.1562 38.625V41.8438C46.1562 44.1979 46.3333 46.2708 46.6875 48.0625C47.0417 49.8333 47.5833 51.3333 48.3125 52.5625C49.0625 53.7708 50.0208 54.6875 51.1875 55.3125C52.375 55.9167 53.8021 56.2188 55.4688 56.2188C57.4271 56.2188 59.0417 55.9062 60.3125 55.2812C61.5833 54.6562 62.5521 53.7292 63.2188 52.5C63.9062 51.2708 64.3125 49.7396 64.4375 47.9062Z" fill="white"/>
<path d="M22.0312 63.5693H12.125L12.1875 56.2568H22.0312C24.4896 56.2568 26.5625 55.7048 28.25 54.6006C29.9375 53.4756 31.2083 51.8402 32.0625 49.6943C32.9375 47.5485 33.375 44.9548 33.375 41.9131V39.6943C33.375 37.361 33.125 35.3089 32.625 33.5381C32.1458 31.7673 31.4271 30.2777 30.4688 29.0693C29.5104 27.861 28.3333 26.9548 26.9375 26.3506C25.5417 25.7256 23.9375 25.4131 22.125 25.4131H11.9375V18.0693H22.125C25.1667 18.0693 27.9479 18.5902 30.4688 19.6318C33.0104 20.6527 35.2083 22.1214 37.0625 24.0381C38.9167 25.9548 40.3438 28.2464 41.3438 30.9131C42.3646 33.5589 42.875 36.5068 42.875 39.7568V41.9131C42.875 45.1423 42.3646 48.0902 41.3438 50.7568C40.3438 53.4235 38.9167 55.7152 37.0625 57.6318C35.2292 59.5277 33.0312 60.9964 30.4688 62.0381C27.9271 63.0589 25.1146 63.5693 22.0312 63.5693ZM17.4375 18.0693V63.5693H8.0625V18.0693H17.4375Z" fill="white"/>
</svg>
